<?xml version="1.0" encoding="UTF-8"?>
<svg id="Layer_2" data-name="Layer 2" xmlns="http://www.w3.org/2000/svg" viewBox="0 0 466.85 466.74">
  <defs>
    <style>
      .cls-1 {
        fill: #ede8d0;
        stroke-width: 0px;
      }
    </style>
  </defs>
  <g id="Layer_2-2" data-name="Layer 2">
    <path class="cls-1" d="M28.79,1.71c.38.15.74.3,1.09.46,8.25,3.83,15.15,11.58,21.47,17.9,40.23,40.29,80.45,80.59,120.67,120.88,19.36,19.4,59.71,59.59,60.71,59.73,1.37.19,43.75-40.32,63.37-60.05,20.73-20.84,41.45-41.67,62.18-62.51s40.62-40.84,60.93-61.26c8.38-8.43,18.58-17.53,30.38-16.07,10.77,1.33,19.04,13.01,16.72,23.62-1.59,7.27-7.09,12.94-12.36,18.2-41.53,41.48-83.05,82.95-124.58,124.43-19.8,19.78-63.57,66.05-63.57,66.05,0,0,16.32,17.67,21.19,22.7,40.05,41.41,81.72,81.36,122.33,122.24,3.72,3.74,7.42,7.49,11.14,11.22,9.1,9.12,18.64,17.79,27.6,27.06,7.53,7.79,18.1,17.28,18.78,28.84.33,5.63-2.74,15.92-8.33,18.72-6.58,3.29-16.04,4.01-22.65.6-4.5-2.32-8.17-5.94-11.77-9.5-18.49-18.31-36.91-36.7-55.3-55.1-40.9-40.94-81.92-81.93-122.75-123.01-1.86-1.87-12.59-11.89-12.59-11.89,0,0-35.39,34.89-50.55,50.09-41.51,41.62-83.03,83.24-124.54,124.85l-11.83,11.86c-6.79,6.8-14.4,14.01-23.97,14.88-6.79.62-13.8-2.38-18.05-7.7s-5.62-12.83-3.51-19.31c2.01-6.19,6.77-11.03,11.37-15.64,63.06-63.03,126.12-126.07,189.18-189.1-17.12-20.9-36.77-38.86-55.42-58.21-20.3-21.06-41.52-41.32-62.25-61.96-14.93-14.88-29.86-29.76-44.8-44.63-8.7-8.66-17.42-17.3-26.1-25.98-1.41-1.4-2.82-2.8-4.27-4.25C1.99,32.34.83,26.27,1.02,16.42c.88-5.91,3.58-9.02,7.85-13.04C13.59-1.06,22.92-.58,28.79,1.71Z"/>
  </g>
</svg>