<?xml version="1.0" encoding="UTF-8"?>
<svg id="Layer_2" data-name="Layer 2" xmlns="http://www.w3.org/2000/svg" viewBox="0 0 464.82 206.43">
  <defs>
    <style>
      .cls-1 {
        fill: #141414;
        stroke-width: 0px;
      }
    </style>
  </defs>
  <g id="Layer_1-2" data-name="Layer 1">
    <g>
      <path class="cls-1" d="M232.02,51.45c-67.96,0-135.92.02-203.88-.02-14.53,0-24.23-7.13-27.4-19.82C-3.02,16.53,7.98,1.3,23.48.15,25.49,0,27.51,0,29.52,0,164.84,0,300.15,0,435.47,0c15.61,0,25.35,6.79,28.61,19.83,3.76,15.08-7.22,30.31-22.73,31.46-2.61.19-5.24.16-7.86.16-67.15,0-134.31,0-201.46,0Z"/>
      <path class="cls-1" d="M232.47,206.43c-67.96,0-135.92.01-203.88-.01-14.76,0-24.41-6.83-27.72-19.4-4.04-15.34,6.98-30.79,22.77-31.91,1.61-.11,3.22-.13,4.84-.13,135.92,0,271.84-.01,407.76,0,14.78,0,24.4,6.8,27.72,19.39,4.04,15.34-6.96,30.79-22.76,31.9-2.61.18-5.24.14-7.86.14-66.95,0-133.9,0-200.85,0Z"/>
    </g>
  </g>
</svg>